<?xml version="1.0" standalone="no"?>
<!DOCTYPE svg PUBLIC "-//W3C//DTD SVG 20010904//EN"
 "http://www.w3.org/TR/2001/REC-SVG-20010904/DTD/svg10.dtd">
<svg version="1.0" xmlns="http://www.w3.org/2000/svg"
 width="2400.000000pt" height="2400.000000pt" viewBox="0 0 2400.000000 2400.000000"
 preserveAspectRatio="xMidYMid meet">

<g transform="translate(0.000000,2400.000000) scale(0.100000,-0.100000)"
fill="#000000" stroke="none">
<path d="M11369 19626 c-2 -2 -89 -7 -192 -10 -104 -3 -192 -8 -197 -11 -8 -5
-54 -11 -220 -30 -74 -8 -201 -36 -263 -57 -32 -11 -80 -20 -105 -20 -26 0
-56 -6 -67 -12 -27 -16 -99 -41 -160 -56 -27 -6 -54 -15 -60 -19 -5 -5 -54
-23 -107 -40 -53 -18 -108 -41 -122 -52 -13 -10 -30 -19 -38 -19 -8 0 -31 -9
-53 -20 -22 -11 -44 -20 -51 -20 -6 0 -19 -9 -29 -20 -10 -11 -23 -20 -29 -20
-10 0 -81 -32 -116 -52 -8 -5 -35 -18 -60 -30 -55 -26 -138 -78 -167 -106 -12
-12 -33 -24 -47 -28 -14 -3 -36 -18 -49 -33 -28 -34 -81 -71 -100 -71 -8 0
-35 -16 -59 -35 -111 -90 -178 -151 -178 -162 0 -7 -10 -18 -22 -24 -31 -16
-42 -26 -118 -101 -101 -100 -182 -189 -220 -241 -19 -26 -48 -64 -63 -84 -15
-20 -35 -52 -44 -70 -8 -19 -24 -38 -34 -44 -11 -5 -19 -18 -19 -29 0 -11 -9
-24 -20 -30 -11 -6 -20 -18 -20 -28 0 -9 -11 -30 -25 -46 -14 -17 -28 -41 -32
-55 -3 -14 -14 -36 -24 -49 -9 -12 -32 -57 -49 -100 -18 -42 -43 -98 -56 -124
-13 -26 -24 -60 -24 -75 0 -16 -6 -37 -14 -48 -18 -27 -79 -222 -78 -254 0
-15 -9 -43 -19 -63 -11 -21 -19 -58 -19 -82 0 -25 -4 -65 -10 -88 -23 -104
-27 -137 -17 -147 7 -7 7 -15 -1 -23 -13 -17 -16 -329 -2 -373 5 -16 14 -66
20 -110 14 -96 43 -205 71 -261 11 -22 24 -56 29 -75 5 -19 16 -60 26 -92 19
-64 15 -76 -18 -58 -77 41 -107 59 -138 82 -73 54 -144 78 -270 90 -47 4 -104
11 -127 14 -23 4 -49 3 -58 -3 -11 -6 -33 -6 -58 0 -33 7 -47 5 -81 -13 -30
-16 -51 -20 -82 -15 -28 3 -47 1 -60 -9 -10 -8 -34 -15 -51 -15 -18 0 -33 -4
-33 -10 0 -5 -15 -10 -33 -10 -19 0 -42 -8 -55 -20 -12 -11 -29 -20 -40 -20
-10 0 -22 -4 -28 -9 -5 -5 -36 -19 -68 -30 -61 -21 -106 -54 -106 -77 0 -18
-33 -34 -56 -28 -13 3 -28 -4 -43 -20 -14 -14 -31 -26 -38 -26 -16 0 -193
-173 -193 -189 0 -35 -17 -61 -39 -61 -11 0 -21 -9 -24 -22 -4 -13 -16 -27
-29 -33 -13 -5 -31 -25 -40 -44 -9 -19 -21 -37 -25 -40 -20 -15 -50 -69 -56
-100 -4 -19 -16 -41 -27 -48 -22 -16 -53 -80 -45 -94 3 -4 -3 -12 -13 -18 -12
-6 -26 -39 -41 -92 -12 -45 -32 -95 -44 -111 -16 -22 -22 -45 -23 -85 0 -36
-6 -60 -15 -67 -16 -12 -34 -66 -44 -131 -4 -22 -11 -60 -16 -85 -5 -25 -12
-90 -15 -145 -2 -55 -10 -117 -16 -137 -9 -32 -9 -41 6 -57 16 -18 16 -24 0
-66 -10 -28 -14 -248 -4 -260 4 -5 9 -44 9 -85 3 -208 18 -366 48 -500 9 -41
16 -91 15 -112 -1 -20 5 -41 13 -48 7 -6 11 -18 8 -26 -3 -8 0 -21 7 -29 6 -8
9 -19 5 -24 -9 -16 15 -131 36 -172 11 -20 19 -48 19 -63 0 -29 18 -110 31
-141 5 -11 9 -29 8 -40 -1 -29 18 -96 30 -108 6 -6 11 -26 11 -43 0 -18 7 -39
15 -48 8 -8 15 -28 15 -45 0 -16 4 -33 10 -36 6 -3 10 -17 10 -31 0 -25 2 -32
38 -101 12 -23 22 -55 22 -72 0 -16 5 -33 10 -36 24 -15 8 -26 -29 -20 -34 6
-41 3 -59 -22 -18 -24 -23 -26 -41 -16 -11 7 -23 9 -26 4 -6 -11 -87 -51 -102
-51 -5 0 -18 -9 -27 -19 -10 -11 -27 -21 -39 -23 -11 -2 -28 -19 -40 -40 -13
-26 -26 -38 -40 -38 -23 0 -79 -52 -90 -82 -4 -10 -13 -18 -20 -18 -21 0 -49
-35 -56 -72 -5 -22 -16 -37 -33 -46 -14 -7 -31 -25 -36 -41 -6 -16 -20 -39
-32 -51 -15 -15 -20 -29 -16 -44 4 -16 -2 -30 -19 -46 -14 -13 -23 -30 -20
-37 2 -8 -2 -16 -10 -19 -8 -4 -15 -18 -15 -33 0 -14 -9 -39 -20 -56 -11 -16
-20 -42 -20 -58 0 -15 -4 -36 -10 -47 -5 -11 -14 -29 -20 -40 -5 -11 -10 -40
-10 -64 0 -25 -4 -48 -10 -51 -5 -3 -10 -19 -10 -35 0 -16 -5 -41 -11 -56 -7
-21 -7 -34 2 -51 10 -18 10 -26 1 -35 -15 -15 -17 -198 -2 -198 6 0 10 -9 10
-19 0 -11 5 -23 10 -26 15 -9 12 -62 -4 -68 -12 -5 -14 -22 -10 -88 3 -46 9
-90 13 -98 7 -15 28 -104 34 -146 1 -11 14 -26 29 -33 24 -11 26 -16 17 -36
-8 -17 -7 -34 4 -67 25 -70 46 -117 57 -124 5 -3 10 -15 10 -26 0 -28 34 -92
165 -314 27 -44 72 -95 85 -95 6 0 10 -7 10 -15 0 -8 17 -31 38 -53 20 -21 49
-54 63 -73 15 -18 55 -61 89 -94 35 -33 81 -79 103 -103 22 -23 48 -42 58 -42
9 0 40 -22 69 -50 29 -27 58 -50 66 -50 8 0 14 -4 14 -8 0 -5 12 -15 28 -23
15 -7 53 -31 84 -52 85 -57 150 -77 240 -73 86 4 99 9 96 39 -1 12 2 48 6 80
6 43 5 61 -5 73 -7 9 -18 26 -24 37 -6 12 -24 24 -42 28 -18 3 -44 14 -57 23
-14 9 -30 16 -36 16 -6 0 -30 18 -53 41 -23 22 -55 48 -72 56 -16 9 -52 38
-79 64 -28 27 -58 51 -68 55 -10 3 -18 10 -18 16 0 6 -16 30 -35 53 -24 30
-45 45 -70 49 -24 5 -35 12 -35 24 0 9 -9 31 -20 47 -11 17 -30 45 -41 63 -12
17 -27 32 -35 32 -7 0 -20 16 -28 35 -8 19 -26 47 -41 62 -14 16 -23 33 -21
40 3 6 -4 19 -15 29 -10 9 -19 21 -19 26 0 6 -9 21 -20 35 -11 14 -20 33 -20
42 0 10 -13 38 -30 64 -16 26 -30 60 -30 76 0 37 -27 100 -45 108 -11 4 -15
22 -15 68 0 45 -6 74 -19 97 -14 24 -20 53 -20 108 0 41 -5 107 -10 145 -13
86 -14 199 -2 223 16 33 31 89 31 120 0 17 5 34 10 37 8 5 8 11 1 19 -13 15
-3 54 20 85 10 12 22 39 25 60 4 20 27 76 51 125 23 49 43 95 43 102 0 7 14
22 30 34 17 12 30 30 30 39 0 24 58 81 82 81 10 0 23 9 30 20 7 11 21 20 32
20 10 0 32 14 48 30 15 17 36 30 46 30 9 0 25 7 35 15 11 7 38 16 60 20 23 4
74 15 112 25 89 24 224 32 245 14 12 -10 26 -10 59 -3 36 8 49 7 75 -9 21 -13
44 -17 65 -14 43 6 50 -7 38 -67 -7 -39 -6 -55 8 -85 10 -21 14 -43 10 -53
-10 -23 -17 -513 -9 -533 8 -18 12 -54 18 -185 3 -55 6 -102 7 -105 1 -3 3
-23 4 -45 1 -22 5 -71 9 -108 4 -42 2 -75 -4 -87 -8 -14 -8 -26 0 -40 6 -11
13 -61 15 -110 2 -49 7 -94 10 -100 9 -15 15 -83 15 -176 0 -51 5 -94 15 -118
9 -20 18 -71 20 -112 3 -42 11 -84 19 -96 11 -15 12 -26 4 -44 -8 -17 -7 -32
3 -56 8 -18 12 -39 11 -46 -2 -8 4 -25 13 -39 9 -13 14 -32 10 -41 -8 -20 14
-159 30 -192 7 -14 10 -31 8 -38 -3 -7 2 -24 11 -37 9 -13 16 -44 16 -68 0
-27 6 -49 15 -57 9 -7 12 -22 9 -38 -3 -16 7 -64 25 -118 17 -51 31 -109 31
-130 0 -22 7 -52 15 -68 8 -16 24 -62 34 -103 11 -41 27 -83 37 -94 12 -13 17
-33 16 -58 -2 -24 3 -45 13 -54 8 -9 15 -29 15 -46 0 -16 5 -33 10 -36 6 -3
10 -16 10 -28 0 -13 7 -32 15 -44 8 -11 29 -65 46 -119 17 -55 44 -125 60
-157 16 -32 29 -69 29 -82 0 -29 10 -52 55 -130 19 -33 34 -70 35 -82 0 -12 4
-24 9 -28 5 -3 17 -29 27 -58 9 -28 30 -68 45 -88 16 -20 34 -59 41 -85 11
-42 25 -71 68 -144 5 -8 17 -31 27 -50 10 -19 32 -57 50 -84 18 -27 40 -72 50
-99 10 -27 28 -56 40 -64 12 -8 28 -31 36 -51 31 -76 145 -260 202 -325 8 -9
15 -25 15 -35 0 -10 14 -31 30 -47 17 -16 30 -34 30 -41 0 -7 8 -19 19 -26 10
-7 39 -46 65 -85 26 -40 51 -73 56 -73 5 0 17 -16 26 -35 9 -19 40 -59 70 -87
30 -29 54 -57 54 -61 0 -5 6 -14 13 -22 6 -7 28 -36 47 -64 19 -27 43 -50 53
-51 9 0 17 -6 17 -13 0 -14 47 -73 83 -106 10 -9 32 -32 50 -51 96 -104 266
-263 289 -272 18 -6 31 -21 38 -43 11 -33 75 -82 125 -95 11 -3 23 -19 29 -38
5 -20 15 -32 26 -32 9 0 26 -13 38 -30 13 -16 29 -30 36 -30 7 0 19 -7 26 -15
7 -8 21 -15 31 -15 10 0 26 -13 36 -30 9 -16 25 -30 33 -30 9 0 29 -14 45 -30
16 -17 34 -30 40 -30 6 0 22 -12 36 -26 13 -14 40 -33 59 -42 19 -9 58 -33 85
-54 28 -21 55 -38 60 -38 6 0 16 -9 23 -20 7 -11 23 -20 36 -20 12 0 31 -9 41
-20 10 -11 25 -20 33 -20 8 0 30 -14 49 -30 18 -17 39 -30 45 -30 6 0 26 -11
44 -25 17 -13 51 -28 75 -31 25 -4 52 -17 65 -31 12 -12 29 -23 38 -23 9 0 25
-9 36 -20 11 -11 22 -20 25 -20 3 0 26 -10 53 -23 26 -12 67 -29 92 -36 25 -8
68 -25 97 -38 28 -14 56 -22 62 -19 6 4 18 1 26 -7 8 -8 46 -24 84 -36 38 -12
71 -26 73 -31 2 -6 34 -12 72 -15 43 -3 75 -10 86 -20 10 -9 35 -19 56 -22 22
-3 41 -9 44 -12 3 -4 50 -17 105 -29 55 -13 114 -27 131 -32 17 -6 48 -10 70
-10 22 0 44 -4 50 -9 9 -9 73 -17 229 -27 44 -2 89 -9 100 -14 11 -6 74 -8
145 -5 150 5 146 5 240 1 43 -2 81 1 88 7 8 7 16 7 20 1 9 -12 91 -12 100 1 4
6 51 10 104 11 57 0 103 6 111 12 17 14 75 18 99 8 14 -6 20 -2 28 19 7 20 14
24 23 17 6 -5 26 -12 44 -15 24 -5 35 -2 42 10 7 13 26 17 81 19 39 1 77 7 83
13 6 6 28 11 48 11 21 0 41 5 44 10 3 6 19 10 34 10 16 0 45 7 64 15 20 8 50
15 68 15 23 0 32 5 36 21 4 16 11 19 29 15 12 -3 26 -2 29 4 3 5 16 10 28 10
12 0 40 7 62 14 31 11 41 20 43 40 4 31 6 32 32 6 25 -25 40 -25 47 0 3 11 11
20 19 20 7 0 18 9 24 20 8 15 21 20 54 20 44 0 110 22 121 40 3 5 17 10 31 10
14 0 43 9 65 21 31 16 40 25 36 40 -3 10 -1 19 4 19 5 0 9 -7 9 -15 0 -18 11
-19 43 -4 18 8 27 22 31 49 5 35 9 39 36 38 18 -1 30 -6 30 -15 0 -19 24 -16
43 5 17 18 64 45 110 61 26 10 38 31 16 31 -5 0 -7 5 -3 11 4 8 8 8 13 0 8
-12 51 -3 51 10 0 5 9 9 20 9 14 0 18 5 13 17 -5 12 -2 15 10 10 20 -8 61 13
103 52 18 17 38 31 44 31 7 0 40 25 75 55 34 30 67 55 72 55 5 0 18 9 28 20
10 11 26 20 35 20 9 0 29 13 44 29 22 23 27 36 22 55 -4 16 -2 26 5 26 6 0 13
-9 16 -20 7 -25 22 -26 29 -3 9 30 21 48 30 48 13 0 84 72 84 85 0 5 11 9 23
8 27 -2 83 38 90 65 3 9 13 17 22 17 17 0 64 48 65 66 0 12 54 54 69 54 5 0
20 13 33 30 13 16 62 69 110 118 50 51 88 98 90 112 1 14 12 29 23 35 59 30
85 59 86 94 0 28 2 32 8 16 7 -17 16 -11 79 55 46 48 72 83 72 98 0 12 12 32
26 45 51 43 74 72 74 94 0 15 10 28 30 38 34 17 37 29 15 52 -12 12 -13 18 -4
29 6 8 17 14 25 14 15 0 64 43 64 56 0 5 16 20 35 34 37 26 65 70 65 102 0 10
4 18 9 18 5 0 11 12 13 27 2 19 10 29 26 33 24 5 54 50 112 167 17 34 38 67
46 74 8 6 14 16 14 21 0 5 11 26 25 46 14 20 25 47 25 59 0 13 10 33 23 45 34
34 50 69 51 112 1 31 5 40 21 42 27 4 43 29 38 58 -4 18 2 32 21 49 14 13 26
32 26 41 0 9 4 16 10 16 5 0 7 13 4 29 -5 23 -2 32 17 41 21 12 22 13 5 26
-17 12 -17 15 14 40 55 47 60 54 60 93 0 20 5 42 12 49 7 7 8 12 4 12 -5 0 -1
12 9 26 12 19 15 37 11 65 -5 34 -3 40 18 51 14 7 36 30 51 52 24 36 25 40 10
56 -15 17 -14 22 10 70 15 29 35 54 44 57 13 3 20 18 24 46 4 23 15 60 27 82
22 42 26 80 10 90 -18 11 -11 25 13 25 24 0 40 28 52 90 4 19 12 44 19 55 7
12 11 50 10 96 -2 73 -1 77 22 88 14 6 33 11 43 11 10 0 26 9 36 20 10 11 24
20 31 20 15 0 124 57 145 76 9 8 42 28 75 44 53 28 197 123 230 153 7 7 24 21
39 32 15 11 40 32 55 47 16 16 33 28 38 28 5 0 27 16 48 35 21 19 46 37 56 41
10 3 18 9 18 14 0 5 33 35 73 66 87 69 327 311 327 331 0 7 3 13 8 13 4 1 23
24 42 52 19 28 43 58 53 66 9 9 17 23 17 32 0 9 13 31 30 50 16 19 29 41 30
48 0 7 11 30 25 52 14 22 25 44 25 49 0 5 6 14 14 20 8 7 24 37 36 69 12 31
28 71 36 87 47 106 64 150 64 165 0 10 7 31 15 46 8 16 15 40 15 54 0 14 7 36
16 48 10 14 14 32 10 48 -4 13 -2 33 4 43 19 36 40 204 40 321 1 52 1 106 1
120 3 98 -2 161 -16 199 -8 24 -15 71 -15 105 0 42 -5 69 -17 86 -9 13 -18 42
-19 64 -3 41 -56 187 -78 216 -7 8 -17 26 -23 40 -25 58 -37 80 -45 80 -4 0
-8 6 -8 13 0 7 -13 28 -30 47 -16 19 -29 40 -30 47 0 19 -44 79 -99 135 -28
28 -51 58 -51 66 0 16 -108 125 -133 135 -9 3 -17 11 -17 17 0 12 -37 49 -66
66 -15 10 -18 21 -16 60 1 27 6 58 11 69 22 55 45 136 52 190 13 90 15 98 27
122 7 12 12 42 12 67 0 25 5 48 10 51 5 3 10 24 10 46 0 22 9 77 20 122 26
109 41 188 51 267 12 96 26 180 38 220 6 19 14 71 17 115 3 44 12 130 21 190
18 127 22 589 6 720 -12 93 -61 332 -74 357 -5 9 -9 25 -9 35 -1 10 -9 36 -20
58 -11 22 -19 44 -20 48 0 5 -7 25 -16 45 -27 62 -32 76 -38 104 -3 14 -17 40
-31 56 -14 17 -25 37 -25 46 0 8 -13 31 -30 49 -16 19 -30 42 -30 51 0 9 -16
38 -36 64 -20 26 -51 72 -70 101 -18 30 -63 87 -99 125 -35 39 -90 99 -121
134 -32 34 -62 62 -67 62 -6 0 -24 15 -41 33 -17 17 -53 44 -79 59 -26 15 -47
32 -47 38 0 5 25 33 56 62 31 29 65 70 75 91 11 21 31 42 44 47 14 5 25 17 25
25 0 9 18 33 40 54 22 21 40 45 40 53 0 9 12 23 26 33 19 12 24 22 20 38 -4
17 3 27 30 45 19 12 38 30 41 40 4 9 24 37 45 61 21 24 38 54 38 67 0 15 14
34 40 55 22 18 40 37 40 42 0 5 9 20 20 34 11 14 20 34 20 44 0 11 18 36 40
58 22 21 40 46 40 54 0 9 17 42 38 74 75 113 116 178 135 213 11 19 25 42 33
51 8 8 14 19 14 23 0 7 16 34 116 188 24 37 44 74 44 82 0 8 5 18 10 21 6 3
10 16 10 27 0 12 6 29 14 37 8 10 12 30 9 52 -4 31 -11 40 -46 57 -23 12 -58
23 -77 26 -19 2 -55 9 -80 16 -40 9 -76 15 -230 35 -25 3 -79 12 -120 21 -41
8 -120 17 -175 18 -58 1 -110 8 -124 15 -15 8 -38 11 -63 7 -22 -4 -45 -2 -52
3 -15 13 -192 41 -255 41 -28 0 -53 5 -57 11 -3 6 -22 9 -43 6 -20 -2 -48 2
-65 10 -15 8 -49 16 -75 17 -25 1 -60 10 -78 19 -18 9 -52 17 -77 17 -25 0
-48 5 -52 11 -4 8 -28 10 -70 6 -44 -4 -64 -3 -67 6 -2 7 -26 18 -53 25 -27 8
-59 18 -72 23 -13 5 -39 9 -59 9 -33 0 -76 10 -128 31 -11 4 -31 10 -45 13
-88 18 -160 37 -193 51 -20 8 -65 22 -100 30 -34 7 -93 23 -132 35 -38 12
-101 28 -140 37 -38 8 -83 21 -100 28 -16 7 -55 19 -85 26 -30 7 -60 16 -66
21 -6 5 -18 6 -26 3 -8 -3 -21 1 -28 10 -7 8 -23 15 -37 15 -13 0 -41 9 -63
20 -22 11 -54 20 -72 20 -18 0 -44 9 -58 20 -14 11 -41 20 -62 20 -20 0 -40 5
-43 10 -3 6 -17 10 -31 10 -13 0 -24 3 -24 8 0 9 -97 47 -171 66 -31 8 -78 23
-105 34 -86 35 -277 100 -329 113 -27 6 -57 18 -66 25 -8 8 -23 14 -32 14 -10
0 -25 4 -35 9 -19 10 -50 22 -102 40 -19 7 -57 21 -85 32 -27 10 -59 19 -71
19 -12 0 -33 9 -47 20 -14 11 -36 20 -49 20 -14 0 -47 11 -74 25 -27 14 -58
25 -68 25 -10 0 -37 9 -60 19 -133 63 -171 76 -276 100 -19 5 -48 15 -65 24
-46 25 -161 67 -182 67 -11 0 -24 5 -29 10 -7 7 -19 8 -37 1 -22 -9 -28 -7
-37 9 -6 11 -17 20 -25 20 -9 0 -23 4 -33 9 -59 30 -185 71 -218 71 -13 0 -39
9 -59 20 -20 11 -47 20 -61 20 -13 0 -36 7 -49 16 -13 9 -37 14 -52 13 -15 -2
-41 4 -58 13 -16 8 -55 21 -85 28 -30 6 -68 16 -85 20 -16 5 -66 16 -110 26
-44 9 -89 20 -100 24 -20 8 -106 26 -160 34 -16 2 -59 9 -95 16 -36 6 -83 12
-105 11 -22 0 -56 4 -75 9 -49 13 -191 23 -350 25 -74 1 -142 5 -151 9 -8 4
-17 5 -20 2z m-2298 -3666 c17 -28 39 -55 50 -61 10 -5 19 -18 19 -28 0 -11
23 -39 50 -64 28 -25 50 -52 50 -60 0 -9 13 -23 28 -32 16 -10 32 -27 38 -38
5 -12 18 -26 30 -32 12 -6 46 -40 77 -75 30 -36 92 -96 137 -135 45 -38 113
-98 152 -132 38 -35 74 -63 79 -63 5 0 9 -7 9 -15 0 -9 10 -19 23 -24 12 -5
33 -21 46 -35 14 -14 30 -26 36 -26 6 0 21 -11 33 -25 12 -13 37 -31 57 -39
19 -8 35 -19 35 -24 0 -5 48 -42 108 -83 122 -82 190 -132 213 -154 9 -8 30
-15 47 -15 22 0 32 -5 32 -15 0 -8 9 -15 20 -15 11 0 37 -15 57 -32 42 -36 77
-58 94 -58 6 0 29 -13 52 -28 48 -33 131 -72 150 -72 8 0 22 -9 32 -20 10 -11
29 -20 41 -20 20 0 136 -55 169 -80 6 -4 26 -11 45 -15 36 -8 64 -21 93 -44 9
-8 20 -12 23 -8 9 9 101 -21 180 -58 38 -18 77 -33 85 -33 47 3 80 -4 96 -21
10 -10 34 -21 53 -24 34 -5 84 -18 208 -53 31 -9 76 -17 100 -17 23 0 42 -3
42 -8 0 -5 15 -9 34 -9 21 0 36 -6 40 -15 4 -11 18 -16 43 -15 61 0 76 -1 121
-16 23 -8 65 -14 92 -14 26 0 50 -5 52 -11 3 -9 119 -20 208 -20 19 1 62 -6
95 -14 60 -15 136 -20 383 -29 87 -3 132 -1 132 6 0 6 7 7 18 2 9 -4 62 -9
117 -11 55 -2 107 -4 115 -5 27 -2 218 17 230 23 3 1 43 4 90 5 106 2 249 16
232 22 -6 2 -10 7 -7 11 2 5 28 4 56 -2 42 -8 54 -7 63 4 7 9 32 15 66 16 81
2 174 22 183 39 6 11 13 12 28 3 16 -8 25 -7 37 4 21 18 66 27 84 16 7 -5 19
-2 28 5 8 7 35 16 60 20 50 7 175 43 202 57 10 5 25 9 33 9 9 0 26 7 40 16 13
8 29 14 37 13 7 -2 30 5 50 15 20 10 42 15 48 11 6 -4 19 0 28 8 9 8 34 18 56
21 21 4 46 11 55 16 9 4 27 12 41 17 14 6 45 20 70 33 25 12 59 24 77 27 39 6
45 -9 39 -102 -3 -48 0 -78 10 -97 8 -15 14 -55 14 -92 0 -36 5 -68 10 -71 6
-3 10 -30 10 -60 0 -30 5 -57 10 -60 6 -3 10 -26 10 -51 0 -30 10 -62 30 -101
33 -61 36 -82 18 -102 -11 -10 -6 -18 20 -39 28 -23 32 -32 27 -54 -4 -17 0
-39 14 -66 12 -23 21 -51 21 -63 0 -11 9 -32 20 -46 11 -14 20 -35 20 -47 0
-12 7 -31 15 -42 8 -10 15 -28 15 -40 0 -11 11 -44 25 -72 14 -29 25 -60 25
-71 0 -10 7 -21 15 -25 8 -3 15 -18 15 -33 0 -15 7 -37 15 -47 8 -11 15 -27
15 -36 0 -9 11 -22 25 -28 18 -8 25 -19 25 -40 0 -17 9 -37 21 -48 12 -10 28
-34 36 -51 7 -18 17 -33 22 -33 4 0 16 -24 25 -54 9 -29 29 -64 43 -77 14 -13
33 -40 43 -60 11 -20 39 -57 64 -83 30 -31 46 -56 46 -72 0 -17 7 -28 20 -31
11 -3 20 -12 20 -20 0 -8 8 -17 19 -20 10 -2 25 -17 32 -31 8 -15 24 -38 36
-52 85 -100 105 -118 137 -124 19 -4 37 -13 40 -21 8 -21 36 -19 36 3 0 27 20
42 59 42 44 1 106 22 131 45 10 9 25 15 32 13 7 -3 25 5 39 17 16 13 47 24 78
28 28 3 56 9 62 13 6 4 39 6 73 6 36 0 75 7 96 16 32 15 62 17 195 13 27 -1
44 4 53 16 11 16 13 16 25 -1 9 -12 29 -18 62 -20 28 -2 57 -5 65 -8 8 -3 40
-11 70 -18 30 -6 73 -20 96 -30 22 -10 65 -26 95 -36 30 -9 60 -24 66 -32 20
-24 66 -52 87 -52 10 0 28 -9 40 -20 59 -56 83 -81 98 -104 10 -13 28 -26 40
-28 15 -2 24 -11 26 -25 2 -13 13 -31 25 -40 12 -10 30 -30 40 -45 10 -16 24
-28 32 -28 10 0 15 -10 15 -29 0 -19 8 -36 23 -48 12 -10 34 -36 47 -58 13
-22 35 -48 47 -58 16 -13 23 -29 23 -55 1 -39 15 -64 41 -74 10 -4 18 -23 22
-55 3 -26 15 -69 26 -94 11 -25 25 -77 31 -115 5 -38 14 -87 19 -109 6 -25 6
-56 0 -85 -7 -31 -7 -55 1 -74 15 -41 12 -85 -10 -147 -10 -31 -17 -65 -14
-76 3 -12 1 -31 -6 -43 -9 -18 -8 -25 6 -41 15 -17 16 -21 2 -36 -9 -10 -19
-35 -22 -56 -4 -21 -13 -40 -21 -43 -8 -3 -18 -34 -25 -77 -6 -40 -15 -80 -20
-89 -6 -10 -10 -26 -10 -36 0 -10 -14 -29 -31 -41 -23 -17 -30 -29 -26 -47 2
-13 1 -21 -4 -19 -12 8 -24 -17 -24 -50 0 -20 -7 -33 -21 -40 -35 -17 -54 -36
-54 -54 0 -9 -14 -29 -29 -44 -16 -16 -35 -42 -41 -58 -7 -16 -16 -29 -21 -29
-5 0 -14 -11 -19 -25 -5 -14 -23 -34 -40 -43 -16 -9 -30 -24 -31 -32 0 -8 -30
-40 -66 -69 -36 -30 -69 -65 -74 -78 -5 -13 -24 -31 -41 -39 -57 -26 -79 -41
-116 -77 -21 -19 -49 -37 -64 -41 -15 -3 -35 -19 -44 -36 -10 -17 -30 -32 -45
-35 -15 -4 -30 -13 -33 -21 -3 -8 -10 -14 -17 -14 -6 0 -19 -10 -28 -21 -10
-12 -30 -23 -46 -25 -15 -2 -37 -11 -49 -22 -11 -10 -29 -22 -38 -25 -9 -3
-18 -18 -20 -34 -3 -26 -7 -28 -60 -34 -37 -4 -69 -15 -90 -30 -18 -13 -74
-44 -125 -69 -54 -27 -96 -54 -102 -66 -6 -14 -22 -23 -50 -28 -23 -3 -41 -11
-41 -17 0 -8 -13 -9 -40 -5 -37 6 -40 5 -46 -21 -3 -16 -17 -64 -32 -108 -14
-44 -27 -100 -28 -124 -2 -24 -10 -51 -19 -61 -8 -9 -15 -24 -15 -32 0 -9 -7
-29 -15 -44 -8 -16 -15 -38 -15 -48 0 -22 -17 -81 -32 -110 -18 -34 -59 -233
-52 -251 2 -5 -10 -19 -26 -30 -29 -19 -60 -89 -60 -136 0 -9 -7 -22 -15 -29
-9 -7 -15 -30 -15 -54 -1 -31 -8 -50 -30 -76 -17 -19 -30 -45 -30 -57 0 -13
-9 -28 -20 -35 -11 -7 -20 -22 -20 -34 0 -11 -9 -31 -20 -44 -13 -15 -20 -37
-20 -63 0 -28 -7 -48 -21 -63 -16 -17 -19 -26 -10 -42 9 -16 4 -24 -29 -51
-23 -19 -40 -41 -40 -53 0 -11 -20 -47 -45 -80 -25 -33 -45 -66 -45 -73 0 -8
-14 -35 -31 -60 -17 -26 -37 -66 -44 -89 -7 -24 -25 -55 -40 -70 -20 -20 -25
-33 -21 -52 5 -18 2 -24 -10 -24 -9 0 -21 -13 -27 -29 -6 -16 -21 -34 -34 -40
-15 -7 -23 -19 -23 -34 0 -13 -9 -32 -21 -43 -12 -10 -30 -38 -41 -62 -11 -23
-29 -47 -39 -53 -11 -5 -19 -16 -19 -23 0 -7 -9 -21 -20 -31 -11 -10 -20 -23
-20 -30 0 -6 -11 -22 -25 -35 -13 -13 -38 -51 -54 -85 -22 -47 -35 -64 -55
-69 -19 -5 -28 -15 -32 -35 -4 -18 -14 -31 -26 -35 -16 -4 -19 -10 -14 -29 7
-30 -32 -77 -64 -77 -13 0 -30 -16 -50 -49 -17 -27 -42 -56 -55 -65 -25 -16
-35 -56 -14 -56 5 0 7 -5 3 -12 -6 -9 -9 -9 -12 0 -7 22 -28 12 -63 -29 -52
-62 -316 -329 -325 -329 -4 0 -30 -21 -59 -47 -28 -27 -77 -70 -108 -96 -31
-27 -57 -56 -57 -66 0 -14 -10 -21 -36 -25 -19 -4 -43 -16 -52 -27 -9 -11 -42
-35 -73 -53 -30 -18 -67 -45 -82 -60 -14 -14 -32 -26 -40 -26 -8 0 -20 -7 -28
-16 -7 -8 -29 -24 -48 -35 -41 -22 -78 -46 -112 -72 -45 -34 -94 -63 -129 -76
-19 -8 -46 -25 -61 -38 -14 -12 -32 -23 -40 -23 -25 -1 -142 -57 -151 -74 -5
-9 -18 -16 -28 -16 -10 0 -22 -4 -25 -10 -3 -6 -14 -10 -23 -10 -9 0 -28 -9
-42 -20 -14 -11 -33 -20 -43 -20 -20 0 -74 -33 -94 -57 -9 -12 -15 -12 -31 -2
-16 10 -27 8 -64 -9 -24 -12 -50 -22 -56 -22 -7 0 -17 -9 -24 -20 -9 -13 -19
-18 -35 -14 -13 4 -34 -1 -48 -10 -13 -9 -38 -16 -54 -16 -16 0 -42 -6 -58
-14 -89 -43 -99 -46 -131 -40 -28 6 -34 4 -39 -15 -6 -24 -7 -25 -32 -9 -14 8
-29 8 -64 0 -25 -7 -60 -12 -77 -12 -17 0 -40 -5 -51 -11 -30 -16 -125 -29
-216 -30 -46 -1 -83 -5 -83 -10 0 -5 -17 -8 -37 -8 -21 0 -117 0 -213 0 -96 0
-178 3 -183 6 -4 2 -19 -3 -33 -12 -13 -9 -29 -13 -35 -9 -29 18 -163 38 -319
48 -75 5 -201 27 -278 48 -41 11 -84 18 -98 15 -13 -2 -32 1 -41 8 -9 7 -23
11 -30 8 -7 -3 -33 4 -57 16 -25 11 -64 23 -88 27 -41 5 -70 15 -110 35 -10 5
-25 9 -34 9 -9 0 -27 9 -41 20 -14 11 -31 20 -37 20 -7 0 -31 9 -54 20 -22 11
-46 20 -52 20 -6 0 -18 7 -26 15 -9 8 -28 15 -43 15 -16 0 -34 7 -41 15 -7 8
-23 15 -35 15 -12 0 -28 7 -35 14 -6 8 -27 20 -46 26 -33 11 -130 66 -159 90
-8 7 -21 10 -29 7 -8 -3 -24 5 -36 18 -12 13 -33 26 -47 29 -13 4 -47 22 -74
42 -29 20 -57 33 -67 30 -23 -7 -39 4 -51 37 -6 16 -18 27 -29 27 -10 0 -35
18 -56 40 -20 22 -45 40 -56 40 -10 0 -22 5 -26 11 -3 6 -30 26 -60 45 -30 19
-86 64 -126 99 -39 36 -80 65 -90 65 -10 0 -22 8 -25 18 -4 9 -22 31 -41 47
-20 17 -53 47 -76 69 -22 21 -56 49 -76 61 -20 13 -51 45 -68 72 -18 27 -43
56 -57 63 -13 7 -27 21 -31 32 -3 10 -9 18 -14 18 -4 0 -45 43 -91 95 -46 52
-91 98 -101 101 -10 3 -18 11 -18 18 0 8 -7 20 -17 27 -25 21 -123 147 -123
158 0 5 -11 18 -24 28 -13 10 -31 33 -40 51 -9 18 -28 37 -40 42 -15 5 -29 23
-36 43 -6 20 -17 38 -24 40 -7 3 -23 26 -35 51 -12 25 -31 48 -41 51 -10 3
-24 21 -30 40 -6 18 -26 48 -45 67 -19 18 -40 49 -46 68 -14 43 -56 114 -86
147 -13 13 -23 32 -23 41 0 9 -16 37 -36 62 -19 24 -38 58 -41 75 -4 17 -27
49 -55 77 -32 31 -48 55 -48 72 0 14 -4 28 -10 31 -5 3 -10 13 -10 21 0 9 -40
98 -90 198 -49 100 -90 187 -90 193 0 7 -13 38 -30 70 -16 31 -30 63 -30 69 0
6 -9 19 -19 28 -11 10 -25 41 -31 69 -6 29 -23 79 -39 112 -16 33 -34 80 -41
105 -7 25 -24 70 -37 100 -14 30 -27 71 -29 90 -3 19 -14 53 -26 75 -12 22
-25 63 -28 90 -4 28 -19 80 -32 115 -26 69 -48 146 -55 195 -2 17 -8 39 -12
50 -18 45 -31 93 -31 114 0 13 -8 35 -18 49 -10 16 -19 51 -21 82 -1 30 -7 59
-12 64 -5 6 -9 29 -9 52 0 23 -7 57 -15 77 -8 19 -11 37 -8 41 4 3 1 17 -7 30
-7 14 -10 32 -6 41 3 9 0 29 -8 43 -8 15 -17 61 -20 102 -4 41 -11 98 -17 125
-11 56 -28 154 -33 202 -2 17 -7 36 -10 42 -4 6 -9 57 -12 113 -2 57 -9 137
-14 178 -17 137 -29 453 -23 625 1 28 2 70 2 95 -1 58 9 499 15 652 2 64 7
122 11 129 4 6 7 37 6 68 0 31 8 110 19 176 11 66 20 141 20 166 0 25 3 49 7
53 7 7 11 36 16 116 2 19 8 47 14 61 7 15 9 37 6 49 -3 12 -1 31 5 43 6 12 13
33 15 47 3 14 15 70 27 125 12 55 26 128 30 162 5 34 16 76 25 92 8 17 15 41
15 55 0 14 5 28 10 31 6 4 10 21 9 38 -2 32 8 70 42 161 11 27 19 57 19 67 0
11 4 27 9 37 5 9 21 53 35 97 15 44 31 94 37 110 6 17 12 39 14 50 11 60 26
101 44 126 12 16 26 52 32 81 6 29 24 79 40 111 16 32 29 63 29 70 0 7 16 42
35 80 19 37 32 67 29 67 -3 0 3 16 15 36 12 19 21 41 21 48 0 7 18 49 40 94
22 44 40 84 40 89 0 4 9 19 20 33 11 14 20 37 20 53 0 15 4 27 9 27 5 0 16 17
24 38 8 21 22 44 31 51 9 8 16 21 16 30 0 9 16 43 36 76 19 33 47 87 63 120
16 33 40 70 55 82 14 13 26 30 26 38 0 20 38 90 67 122 11 13 29 41 39 61 22
47 100 166 119 182 8 7 15 18 15 25 0 7 7 18 15 25 9 7 23 29 32 49 22 48 84
140 116 171 14 14 47 55 73 90 63 86 176 210 192 210 7 0 26 -23 43 -50z"/>
<path d="M12840 13340 c0 -5 5 -10 10 -10 6 0 10 5 10 10 0 6 -4 10 -10 10 -5
0 -10 -4 -10 -10z"/>
<path d="M12886 13329 c-24 -34 -56 -53 -69 -40 -28 28 -145 3 -131 -28 4 -9
8 -30 8 -48 1 -18 7 -38 14 -45 15 -15 16 -44 2 -53 -20 -12 -10 -35 15 -35
24 0 35 -15 15 -22 -14 -4 7 -74 29 -96 10 -9 26 -32 37 -49 10 -18 23 -33 29
-33 5 0 53 -45 104 -100 52 -55 100 -100 107 -100 6 0 19 -11 28 -25 9 -14 25
-25 35 -25 20 0 40 -20 61 -62 7 -16 19 -28 26 -28 7 0 18 -9 24 -21 8 -15 18
-19 34 -15 16 4 24 -1 31 -17 6 -13 25 -26 50 -33 22 -6 38 -13 36 -15 -2 -2
-1 -14 3 -27 8 -23 78 -66 90 -55 3 3 17 -6 30 -20 19 -21 31 -25 53 -21 21 4
33 0 47 -15 11 -12 24 -21 31 -21 6 0 17 -11 23 -25 6 -14 18 -25 26 -25 7 0
19 -7 26 -15 7 -8 21 -15 31 -15 20 0 83 -34 115 -62 12 -11 28 -16 38 -12 9
3 27 -1 41 -10 13 -9 31 -16 40 -16 8 0 24 -6 35 -12 16 -10 24 -10 42 1 20
12 24 11 47 -17 26 -31 81 -46 108 -29 7 5 16 -1 23 -13 13 -25 71 -50 117
-50 19 0 44 -5 55 -11 15 -8 26 -8 44 1 13 7 31 9 41 5 10 -4 66 -9 126 -10
94 -3 108 -1 117 15 6 11 25 19 56 23 47 5 81 25 57 34 -19 7 -16 23 5 23 16
1 16 1 0 14 -12 9 -18 27 -18 52 0 61 -17 108 -47 130 -34 25 -136 66 -154 63
-19 -3 -70 11 -94 26 -11 6 -35 15 -52 18 -25 5 -33 3 -33 -8 0 -23 -27 -18
-49 11 -17 22 -22 24 -41 12 -19 -12 -24 -9 -59 29 -27 29 -53 45 -82 53 -24
6 -56 16 -72 22 -22 9 -31 7 -46 -6 -24 -22 -31 -20 -31 7 -1 31 -23 57 -50
57 -12 0 -34 12 -49 28 -34 33 -107 77 -142 86 -15 3 -34 17 -43 31 -13 20
-22 24 -41 19 -14 -3 -32 -3 -41 0 -13 5 -14 9 -4 21 10 13 9 19 -5 35 -10 11
-24 20 -30 20 -7 0 -18 7 -25 15 -7 8 -21 15 -31 15 -10 0 -19 9 -21 22 -2 11
-11 22 -21 24 -32 4 -48 14 -43 23 7 11 -40 51 -60 51 -7 0 -16 10 -20 23 -4
12 -15 28 -25 35 -11 7 -19 19 -19 26 0 7 -6 21 -14 31 -14 19 -15 19 -35 1
-16 -14 -25 -16 -32 -9 -14 14 -3 33 17 33 8 0 14 4 14 8 0 15 -24 32 -44 32
-10 0 -17 3 -13 6 6 7 -29 44 -42 44 -13 0 -43 49 -36 60 12 19 -6 50 -29 50
-29 0 -39 10 -25 26 6 7 8 18 4 24 -9 15 -33 12 -43 -6 -7 -13 -12 -14 -29 -3
-17 10 -25 9 -51 -9 -40 -29 -76 -30 -67 -2 5 14 2 20 -9 20 -9 0 -16 7 -16
15 0 22 -37 18 -54 -6z"/>
<path d="M13008 13333 c7 -3 16 -2 19 1 4 3 -2 6 -13 5 -11 0 -14 -3 -6 -6z"/>
<path d="M8790 12753 c-14 -3 -32 -14 -41 -25 -13 -17 -20 -18 -37 -9 -32 17
-35 14 -28 -28 4 -28 2 -42 -9 -51 -8 -7 -15 -24 -15 -37 0 -15 -10 -33 -25
-45 -28 -22 -32 -38 -11 -38 8 0 21 -18 30 -41 10 -25 28 -46 48 -57 17 -9 42
-27 55 -39 13 -13 31 -23 39 -23 8 0 28 -10 44 -21 20 -15 36 -20 55 -15 19 5
34 0 59 -19 19 -14 46 -25 65 -25 17 0 39 -4 49 -9 9 -4 32 -13 50 -19 28 -9
34 -8 43 9 9 18 11 18 36 -12 24 -28 31 -30 65 -25 21 3 46 2 55 -3 29 -15
133 -34 212 -37 40 -2 79 -8 86 -14 7 -6 42 -12 78 -14 39 -2 75 -11 89 -20
27 -19 61 -21 88 -4 16 10 24 10 38 0 39 -28 65 -37 70 -24 5 17 27 15 74 -8
46 -22 89 -26 119 -9 16 8 28 6 55 -10 32 -19 37 -20 59 -5 22 14 27 14 54 1
19 -9 49 -14 82 -11 30 2 56 -1 59 -7 5 -7 32 -7 86 0 49 6 80 6 82 0 2 -5 17
-9 33 -9 22 0 32 6 39 25 5 14 16 25 25 25 9 0 15 9 15 23 0 33 7 37 38 21 45
-23 55 -19 49 24 -6 34 -4 39 26 57 18 10 40 23 50 27 22 10 22 25 -4 67 l-20
34 28 29 28 30 -28 24 c-15 13 -37 24 -48 24 -10 0 -19 7 -19 16 0 22 -69 49
-92 35 -27 -17 -76 -13 -86 5 -11 19 -13 19 -371 28 -128 4 -238 10 -245 14
-11 7 -55 12 -266 30 -63 6 -157 16 -207 23 -74 9 -96 9 -108 -1 -13 -10 -19
-10 -33 2 -21 19 -88 41 -101 34 -13 -8 -160 13 -190 28 -13 6 -49 10 -79 9
-45 -2 -60 1 -78 18 -14 13 -29 19 -42 15 -11 -4 -40 4 -70 19 -50 25 -56 26
-102 18z"/>
<path d="M13746 11951 c-21 -5 -42 -14 -46 -21 -5 -9 -9 -9 -14 -1 -4 6 -31
11 -59 11 -40 0 -57 -5 -69 -19 -14 -17 -21 -18 -47 -8 -25 9 -41 7 -108 -17
-43 -15 -96 -32 -118 -38 -22 -5 -52 -16 -68 -24 -15 -7 -33 -11 -40 -8 -7 2
-31 -9 -52 -26 -21 -16 -44 -30 -52 -30 -8 0 -27 -8 -41 -19 -15 -10 -50 -29
-79 -41 -30 -13 -63 -36 -78 -56 -14 -19 -33 -34 -42 -34 -8 0 -31 -13 -50
-30 -18 -16 -39 -30 -46 -30 -22 -1 -69 -80 -63 -106 3 -12 2 -34 -3 -48 -6
-13 -7 -56 -4 -95 l6 -71 40 0 c49 0 154 55 212 111 22 21 47 39 55 39 8 0 31
15 50 33 29 27 192 117 212 117 9 0 -21 -61 -42 -85 -22 -26 -40 -79 -40 -119
0 -18 -4 -36 -9 -41 -14 -15 7 -206 24 -225 8 -9 15 -28 15 -42 0 -14 11 -42
25 -62 14 -20 25 -43 25 -51 0 -7 9 -17 21 -20 11 -4 25 -20 31 -36 5 -16 14
-29 19 -29 4 0 18 -11 31 -24 24 -24 53 -42 128 -75 74 -32 83 -35 135 -36 28
-1 55 -4 60 -7 22 -13 148 1 169 19 12 10 37 29 56 42 67 46 190 169 190 190
0 8 10 25 22 38 15 16 21 34 20 55 -1 17 4 41 12 53 25 38 20 219 -7 272 -10
18 -17 41 -17 52 0 11 -4 23 -10 26 -5 3 -10 18 -10 33 0 37 -33 90 -83 134
l-42 38 49 0 c71 0 225 -64 383 -158 6 -4 45 -34 86 -68 56 -46 85 -63 118
-68 40 -6 46 -5 69 24 14 16 30 30 37 30 19 0 24 15 29 84 5 69 -7 90 -49 91
-14 0 -23 7 -25 20 -8 56 -14 67 -43 77 -16 5 -34 19 -40 29 -5 10 -17 19 -26
19 -8 0 -30 15 -47 33 -28 28 -57 47 -162 102 -16 8 -40 15 -54 15 -14 0 -38
7 -54 15 -15 8 -39 15 -52 15 -21 0 -43 7 -99 31 -18 8 -29 9 -77 8 -47 0 -66
0 -108 5 -25 3 -61 7 -80 10 -19 2 -52 1 -74 -3z m-63 -487 c86 -15 187 -156
187 -264 0 -110 -97 -210 -203 -210 -49 0 -131 49 -173 103 -20 26 -41 47 -47
47 -6 0 -8 36 -5 98 7 135 36 182 134 217 45 16 55 17 107 9z"/>
<path d="M9866 11889 c-70 -5 -133 -12 -140 -18 -6 -5 -40 -12 -75 -16 -36 -4
-89 -16 -120 -26 -30 -11 -62 -19 -71 -19 -9 0 -38 -11 -64 -25 -26 -14 -58
-25 -70 -25 -13 0 -43 -11 -67 -25 -52 -30 -58 -33 -129 -70 -30 -15 -75 -47
-100 -70 -25 -24 -55 -46 -66 -49 -24 -7 -92 -94 -124 -157 -16 -31 -18 -44
-9 -60 9 -17 7 -23 -10 -36 -25 -17 -28 -53 -5 -53 10 0 14 -5 10 -15 -3 -8
-9 -22 -12 -30 -5 -11 1 -15 24 -15 32 0 42 -14 42 -56 0 -29 14 -30 65 -4 22
11 47 20 57 20 10 0 25 11 34 25 9 14 32 32 51 40 18 8 57 36 86 63 28 27 76
63 105 81 30 17 59 36 65 41 21 17 149 80 163 80 22 0 26 -20 10 -45 -9 -13
-16 -31 -16 -40 0 -9 -6 -18 -14 -21 -19 -7 -46 -76 -46 -117 0 -18 -4 -37 -9
-42 -15 -15 6 -214 24 -232 8 -8 15 -23 15 -33 0 -25 21 -73 37 -83 7 -4 13
-16 13 -26 0 -10 11 -26 25 -35 14 -9 25 -25 25 -36 0 -11 5 -20 10 -20 6 0
20 -10 32 -22 35 -35 87 -68 107 -68 10 0 24 -7 31 -15 7 -8 22 -15 34 -15 12
0 27 -5 33 -11 7 -7 62 -12 149 -13 131 -1 137 0 151 22 9 12 20 22 26 22 12
0 160 120 166 134 2 6 15 20 27 33 13 13 24 31 24 40 0 9 10 27 22 40 14 15
21 34 20 53 -1 17 4 40 12 53 8 12 14 36 14 53 -1 17 2 36 6 42 4 7 0 33 -9
59 -11 32 -13 49 -6 51 16 5 13 19 -13 60 -13 20 -27 59 -31 87 -4 27 -14 63
-22 78 -16 31 -10 48 9 29 7 -7 19 -12 28 -12 8 0 38 -11 65 -25 28 -13 66
-31 85 -40 19 -8 53 -27 75 -40 31 -20 48 -24 77 -19 20 3 45 1 56 -5 11 -6
31 -7 48 -2 22 6 30 14 32 36 2 16 10 38 18 49 8 11 14 30 14 43 0 12 4 24 8
27 5 3 9 28 11 57 2 42 -2 56 -20 75 -12 13 -28 24 -36 24 -7 0 -32 18 -55 40
-24 22 -51 40 -60 40 -26 0 -71 22 -86 42 -7 10 -20 18 -27 18 -8 0 -40 11
-71 25 -31 14 -71 25 -89 25 -18 0 -38 6 -44 14 -12 15 -66 27 -115 27 -16 0
-34 7 -40 15 -9 11 -36 17 -101 20 -50 2 -101 5 -115 7 -14 3 -83 1 -154 -4z"/>
<path d="M11393 11882 c-12 -9 -33 -34 -47 -55 -23 -33 -26 -48 -26 -121 0
-62 4 -87 15 -96 17 -14 20 -46 6 -54 -15 -9 -19 -80 -6 -101 9 -15 10 -39 3
-90 -11 -87 -12 -126 -3 -191 6 -41 4 -54 -11 -68 -14 -14 -18 -36 -20 -95 -1
-42 -6 -105 -11 -139 -8 -51 -7 -65 4 -69 18 -7 16 -19 -8 -41 -16 -16 -22
-37 -26 -98 -4 -46 -12 -84 -20 -92 -9 -10 -11 -18 -4 -26 7 -8 6 -20 -2 -37
-18 -33 -35 -103 -41 -167 -3 -29 -17 -79 -32 -109 -14 -31 -28 -70 -30 -87
-8 -75 -18 -113 -34 -136 -30 -43 -60 -121 -60 -156 0 -30 -38 -161 -60 -203
-11 -23 -57 -184 -74 -261 -28 -125 -29 -140 -10 -162 15 -15 16 -22 6 -36
-26 -36 -30 -59 -20 -98 15 -59 27 -145 22 -158 -2 -6 5 -29 16 -51 11 -21 20
-47 20 -56 0 -9 7 -22 15 -29 8 -7 15 -19 15 -27 0 -18 49 -90 84 -122 14 -14
26 -33 26 -42 0 -10 23 -35 53 -57 28 -21 58 -47 66 -56 8 -9 30 -24 49 -32
20 -8 72 -38 116 -68 129 -85 135 -87 222 -64 53 14 92 58 113 124 12 37 11
48 -8 100 -11 32 -28 63 -38 68 -23 15 -72 43 -165 94 -153 85 -243 210 -264
367 -11 87 -11 92 12 138 13 27 24 58 24 68 0 11 5 29 11 40 6 11 12 46 13 77
2 31 6 64 9 72 3 8 13 35 21 60 35 104 48 135 66 161 11 15 27 56 36 90 9 35
22 69 29 74 7 6 15 31 18 55 13 96 19 126 38 166 10 22 19 53 19 68 0 16 9 44
21 63 12 20 19 43 16 56 -3 12 1 40 9 62 7 22 14 50 14 62 0 12 4 24 9 27 5 3
11 23 14 43 20 130 25 161 32 182 4 13 13 80 21 150 7 69 18 162 24 206 12 99
22 203 21 230 0 11 0 80 0 153 0 85 -4 138 -11 147 -8 10 -8 19 0 34 9 17 6
29 -16 66 -14 25 -30 48 -35 51 -5 3 -9 20 -9 39 0 20 -9 44 -24 62 -12 15
-28 38 -35 51 -29 55 -131 81 -178 44z"/>
<path d="M12750 7388 c-60 -27 -179 -89 -280 -145 -19 -10 -64 -30 -100 -42
-36 -13 -92 -36 -125 -51 -33 -15 -80 -33 -105 -40 -25 -7 -55 -16 -67 -21
-13 -5 -30 -6 -39 -2 -10 4 -22 0 -28 -9 -6 -9 -29 -18 -51 -21 -103 -16 -121
-19 -135 -25 -8 -3 -46 -7 -85 -9 -148 -6 -168 -8 -173 -20 -5 -18 -42 -16
-42 2 0 12 -14 15 -62 15 -39 1 -70 6 -82 15 -11 8 -29 12 -43 9 -13 -4 -30 0
-39 7 -14 11 -18 11 -29 -4 -7 -10 -19 -15 -28 -11 -27 10 -77 -18 -77 -43 0
-12 -4 -25 -10 -28 -5 -3 -10 -30 -10 -58 0 -44 5 -57 30 -84 17 -18 43 -36
58 -39 15 -4 32 -10 37 -14 18 -14 237 -49 310 -50 175 -4 328 0 338 8 7 5 35
8 62 6 28 -1 68 4 90 11 22 8 54 14 70 13 17 0 44 6 60 14 17 9 53 19 80 23
28 4 64 15 81 26 17 10 46 19 63 19 18 0 41 9 53 20 12 11 29 20 37 20 8 0 31
11 50 24 20 14 52 27 71 30 19 3 41 14 50 24 8 11 31 22 50 26 34 6 110 67
110 88 0 5 8 8 18 7 28 -3 66 17 87 47 29 40 49 107 41 138 -3 14 -9 38 -13
54 -3 15 -15 39 -26 55 -20 25 -25 27 -96 26 -42 0 -87 -5 -101 -11z"/>
<path d="M5460 10690 c0 -11 5 -20 10 -20 6 0 10 9 10 20 0 11 -4 20 -10 20
-5 0 -10 -9 -10 -20z"/>
</g>
</svg>
